<svg width="50" height="30" viewBox="0 0 50 30" fill="none" xmlns="http://www.w3.org/2000/svg">
<circle cx="25" cy="15" r="15" fill="#C4E8F4"/>
<path d="M30.2595 8.892L20.7305 12.0243L18.7812 10.0739L27.4046 2.62744H31.303L37.5639 5.75972L42.7812 6.80381V20.377L38.6073 21.4211H28.9531" stroke="black" stroke-miterlimit="10" stroke-linecap="round" stroke-linejoin="round"/>
<path d="M7.30384 18.2887L12.7237 19.3328L20.9713 27.5833L24.5379 26.9693L25.1515 23.4006L28.7181 22.7846L29.3338 19.2159L32.8983 18.602L33.5139 15.0333L28.0899 9.60606M24.0287 5.54245L20.0718 1.58325L12.5212 4.71553L7.30384 5.75962M7.30384 2.62734H1.04297V21.421H7.30384V2.62734ZM49.043 4.71553H42.7821V23.5092H49.043V4.71553Z" stroke="black" stroke-miterlimit="10" stroke-linejoin="round"/>
</svg>
