<svg width="54" height="53" viewBox="0 0 54 53" fill="none" xmlns="http://www.w3.org/2000/svg">
<circle cx="39" cy="15" r="15" fill="#C4E8F4"/>
<path d="M26.0863 22.7916V16.5059L18.782 20.6963H8.34727L1.04297 16.5059V47.9344" stroke="black" stroke-miterlimit="10" stroke-linecap="round" stroke-linejoin="round"/>
<path d="M26.0863 22.7916L18.782 26.9821H8.34727L1.04297 22.7916M19.7733 32.7L18.782 33.2678H8.34727L1.04297 29.0773M19.7733 38.9857L18.782 39.5535H8.34727L1.04297 35.363M19.7733 45.2714L18.782 45.8392H8.34727L1.04297 41.6487M19.7733 51.5571L18.782 52.1249H8.34727L1.04297 47.9345M1.04297 16.5059L8.34727 12.3154H18.782L26.0863 16.5059M49.0426 47.9345V29.0773L41.7383 33.2678H31.3036L23.9993 29.0773V47.9345" stroke="black" stroke-miterlimit="10" stroke-linecap="round" stroke-linejoin="round"/>
<path d="M49.0433 35.3631L41.739 39.5536H31.3043L24 35.3631M49.0433 41.6488L41.739 45.8393H31.3043L24 41.6488M49.0433 47.9345L41.739 52.125H31.3043L24 47.9345M24 29.0774L31.3043 24.8869H41.739L49.0433 29.0774M38.6086 8.125V10.2202M38.6086 18.6012V20.6964M44.8694 14.4107H42.7825M34.4347 14.4107H32.3478" stroke="black" stroke-miterlimit="10" stroke-linecap="round" stroke-linejoin="round"/>
</svg>
